<svg width="30" height="30" viewBox="0 0 30 30" fill="none" xmlns="http://www.w3.org/2000/svg">
<path d="M6.25 26.25V8.75H10.625V8.125C10.625 6.91 11.0504 5.87708 11.9012 5.02625C12.7521 4.17542 13.785 3.75 15 3.75C16.215 3.75 17.2479 4.17542 18.0988 5.02625C18.9496 5.87708 19.375 6.91 19.375 8.125V8.75H23.75V26.25H6.25ZM7.5 25H22.5V10H19.375V13.75H18.125V10H11.875V13.75H10.625V10H7.5V25ZM11.875 8.75H18.125V8.125C18.125 7.245 17.8242 6.50417 17.2225 5.9025C16.6208 5.30083 15.88 5 15 5C14.12 5 13.3792 5.30083 12.7775 5.9025C12.1758 6.50417 11.875 7.245 11.875 8.125V8.75Z" fill="black"/>
</svg>
